# xmcd
#
# Track frame offsets:
#	150
#	22520
#	41190
#	62450
#	83379
#	105990
#	127210
#	148955
#	170025
#	187712
#
# Disc length: 2763 seconds
#
# Revision: 4
# Processed by: cddbd v1.5.2PL0 Copyright (c) Steve Scherf et al.
# Submitted via: EasyCDDAExtractor 15.3.0.1
#
DISCID=790ac90a
DTITLE=Jerry Rivera - Ya No Soy El Niño Aquel
DYEAR=1997
DGENRE=Latin
TTITLE0=Ya No Soy El Niño Aquel
TTITLE1=El Amor Nunca Pregunta
TTITLE2=Nena
TTITLE3=Y Yo Estoy
TTITLE4=Yo Quisiera Ser El Condor
TTITLE5=Pienso En Ti
TTITLE6=Vuela Libre
TTITLE7=Amor De Fotografia
TTITLE8=Como Tu
TTITLE9=Y Pedire
EXTD=
EXTT0=
EXTT1=
EXTT2=
EXTT3=
EXTT4=
EXTT5=
EXTT6=
EXTT7=
EXTT8=
EXTT9=
PLAYORDER=
